<?xml version="1.0" encoding="utf-8"?>
<!-- Generator: Adobe Illustrator 25.3.1, SVG Export Plug-In . SVG Version: 6.00 Build 0)  -->
<svg version="1.1" id="Layer_1" xmlns="http://www.w3.org/2000/svg" xmlns:xlink="http://www.w3.org/1999/xlink" x="0px" y="0px"
	 viewBox="0 0 425.1 60" style="enable-background:new 0 0 425.1 60;" xml:space="preserve">
<style type="text/css">
	.st0{fill:#FFFFFF;}
</style>
<g>
	<g>
		<path class="st0" d="M142,59.1V0.8h12.9v58.3H142z"/>
		<path class="st0" d="M179.1,60c-3.7,0-6.7-0.6-9.1-1.9c-2.4-1.3-4.3-3.3-5.5-6c-1.2-2.7-1.9-6.2-2.1-10.6l11-1.7
			c0,2.5,0.3,4.5,0.7,6.1c0.4,1.5,1,2.6,1.7,3.3c0.7,0.7,1.6,1,2.7,1c1.3,0,2.2-0.5,2.6-1.4c0.4-0.9,0.6-1.9,0.6-2.9
			c0-2.4-0.6-4.4-1.7-6.1c-1.2-1.7-2.7-3.3-4.7-5l-5-4.4c-2.2-1.9-4.1-4-5.6-6.4c-1.5-2.4-2.3-5.3-2.3-8.8c0-4.9,1.5-8.7,4.4-11.3
			c2.9-2.6,6.9-3.9,12-3.9c3.1,0,5.6,0.5,7.5,1.6c1.9,1.1,3.3,2.4,4.3,4.1c1,1.7,1.7,3.5,2,5.4c0.4,1.9,0.6,3.7,0.6,5.4l-11.1,1.4
			c0-1.7-0.2-3.2-0.3-4.5c-0.2-1.3-0.5-2.3-1-3c-0.5-0.7-1.3-1-2.4-1c-1.2,0-2.1,0.5-2.6,1.5s-0.8,2-0.8,3c0,2.2,0.5,3.9,1.5,5.3
			c1,1.4,2.4,2.8,4.1,4.3l4.8,4.2c2.5,2.2,4.7,4.6,6.4,7.3c1.8,2.7,2.6,6.1,2.6,10.2c0,2.7-0.6,5.2-1.9,7.5c-1.2,2.2-3,4-5.3,5.3
			C184.9,59.4,182.2,60,179.1,60z"/>
		<path class="st0" d="M199.7,59.1V0.8h12.9v23.6h9V0.8h13v58.3h-13V33.6h-9v25.5H199.7z"/>
		<path class="st0" d="M243.4,59.1V0.8h12.9v58.3H243.4z"/>
		<path class="st0" d="M265.3,59.1V0.8h12.9v23.6h9V0.8h13v58.3h-13V33.6h-9v25.5H265.3z"/>
		<path class="st0" d="M306.2,59.1l11-58.3h14.7l10.9,58.3h-11.9l-1.9-12.3h-8.6l-2,12.3H306.2z M321.5,39.1h6.2l-3.1-22.8
			L321.5,39.1z"/>
		<path class="st0" d="M348.1,59.1V0.8h16.1c3.9,0,7.3,0.4,10.2,1.3c2.9,0.9,5.1,2.4,6.7,4.6c1.6,2.2,2.4,5.4,2.4,9.5
			c0,2.4-0.2,4.5-0.6,6.4c-0.4,1.9-1.1,3.5-2.1,4.9c-1,1.4-2.5,2.5-4.4,3.4l8,28.2h-13.3L364.7,33H361v26.1H348.1z M361,25.6h3.6
			c1.8,0,3.2-0.3,4.2-1c1-0.6,1.7-1.6,2.1-2.8c0.4-1.2,0.6-2.7,0.6-4.4c0-2.5-0.5-4.4-1.4-5.8c-0.9-1.4-2.6-2.1-5-2.1H361V25.6z"/>
		<path class="st0" d="M388.5,59.1l11-58.3h14.7l10.9,58.3h-11.9l-1.9-12.3h-8.6l-2,12.3H388.5z M403.9,39.1h6.2l-3.1-22.8
			L403.9,39.1z"/>
	</g>
	<g>
		<path class="st0" d="M62.2,6.2H29c-0.3,0.1-0.7,0.2-1.1,0.2c-2,5.8-4.7,12.1-8.1,18h38.3v35h-4.7V55H19.4v4.4h-4.6V31.8
			C11.4,36.4,7.6,40.5,3.2,44c-0.7-1-2.3-2.7-3.3-3.6c10.9-8.3,18.7-21.6,22.8-34.2H2.6V1.7h59.6V6.2z M53.3,50.5V28.7H19.4v21.8
			H53.3z"/>
		<path class="st0" d="M123.7,36.2h-16.2v18c0,5.1-2,5.2-13.2,5.2c-0.2-1.2-0.9-2.8-1.4-4.1c2.4,0.1,4.7,0.1,6.4,0.1
			c3.3,0,3.8,0,3.8-1.2v-18H87V12.2h13.4c0.7-2.3,1.4-5.2,2-7.6H79.5v15.5c0,11.4-0.9,27.8-7.3,39.1c-0.9-0.8-2.8-2-4-2.4
			c6.2-10.8,6.8-26,6.8-36.8V0.3h55.4v4.3h-23.2c-0.6,2.2-1.6,5.2-2.5,7.6h18.8V36.2z M96.7,41.7c-0.2,0.5-0.7,0.7-1.5,0.6
			c-3.5,5.2-8.8,10.6-13.7,14c-0.9-0.7-2.5-1.9-3.5-2.6c4.8-3.2,10.2-8.5,13.5-13.8L96.7,41.7z M91.3,15.8v6.6h27.9v-6.6H91.3z
			 M91.3,25.9v6.6h27.9v-6.6H91.3z M127.9,56.2c-2.6-4.1-8.7-10-14-14.2l3.5-2.3c5.3,4.1,11.5,9.8,14.3,13.9L127.9,56.2z"/>
	</g>
</g>
</svg>
