<?xml version="1.0" encoding="utf-8"?>
<!-- Generator: Adobe Illustrator 25.3.1, SVG Export Plug-In . SVG Version: 6.00 Build 0)  -->
<svg version="1.1" id="Layer_1" xmlns="http://www.w3.org/2000/svg" xmlns:xlink="http://www.w3.org/1999/xlink" x="0px" y="0px"
	 viewBox="0 0 479.8 60" style="enable-background:new 0 0 479.8 60;" xml:space="preserve">
<style type="text/css">
	.st0{fill:#FFFFFF;}
</style>
<g>
	<g>
		<path d="M19.7,29.9c0-0.7,0-1.3-0.1-2C14,24,10.3,17.5,10.3,10.1c0-2.8,0.5-5.5,1.5-7.9C9.2,1.1,6.5,0.3,3.6,0
			C2.5,3.2,1.9,6.6,1.9,10.1c0,11.8,6.7,21.9,16.6,26.9C19.3,34.8,19.7,32.4,19.7,29.9z"/>
		<path d="M13.5,3c-0.9,2.2-1.3,4.6-1.3,7.1c0,0.7,0,1.3,0.1,2c5.6,3.9,9.3,10.4,9.3,17.8c0,12-9.7,21.6-21.6,21.6V60
			c16.6,0,30.1-13.5,30.1-30.1C30.1,18.1,23.3,8,13.5,3z"/>
		<path d="M44.6,39.5c-2.6,1.1-5.4,1.9-8.3,2.3C40.9,52.5,51.6,60,64,60v-8.5C55.5,51.5,48.1,46.6,44.6,39.5z"/>
		<path d="M42.5,26.8C43.9,17,52,9.2,62,8.3c-0.2-2.9-0.7-5.7-1.7-8.3C45.4,1.8,33.9,14.4,33.8,29.8C37,29.5,40,28.4,42.5,26.8z"/>
		<path d="M53.4,13.2C51.9,23.7,42.9,31.8,32,31.8c0,0,0,0-0.1,0c-0.2,2.9-0.7,5.8-1.6,8.4c0.6,0,1.1,0,1.7,0
			c16.6,0,30.1-13.4,30.1-30C58.9,10.5,55.9,11.6,53.4,13.2z"/>
	</g>
	<g>
		<path d="M121.2,26l-8.1,19h-4l-8.1-19v19h-6.7V14.8h9.1l7.8,19.1l7.8-19.1h9.1v30.1h-6.7V26z"/>
		<path d="M164.6,41.3c-3.2,3.1-7.2,4.6-11.9,4.6c-4.7,0-8.7-1.5-11.9-4.6c-3.2-3.1-4.8-6.9-4.8-11.4c0-4.5,1.6-8.4,4.8-11.4
			c3.2-3.1,7.2-4.6,11.9-4.6c4.7,0,8.7,1.5,11.9,4.6c3.2,3.1,4.8,6.9,4.8,11.4C169.5,34.4,167.8,38.2,164.6,41.3z M162.2,29.9
			c0-2.8-0.9-5.1-2.7-7.1c-1.8-1.9-4.1-2.9-6.7-2.9c-2.7,0-4.9,1-6.7,2.9c-1.8,1.9-2.7,4.3-2.7,7.1c0,2.8,0.9,5.1,2.7,7
			c1.8,1.9,4.1,2.9,6.7,2.9c2.7,0,4.9-1,6.7-2.9C161.3,35,162.2,32.7,162.2,29.9z"/>
		<path d="M200.6,18.8c3,2.6,4.5,6.3,4.5,11c0,4.7-1.4,8.4-4.3,11.1c-2.9,2.7-7.3,4.1-13.2,4.1h-10.6V14.8h11
			C193.4,14.8,197.7,16.1,200.6,18.8z M195.5,36.7c1.7-1.6,2.6-3.8,2.6-6.8c0-3-0.9-5.2-2.6-6.8c-1.7-1.6-4.3-2.4-7.9-2.4h-3.9V39
			h4.4C191.4,39,193.8,38.2,195.5,36.7z"/>
		<path d="M221.2,37.8c1.1,1.4,2.7,2.1,4.6,2.1c1.9,0,3.5-0.7,4.6-2.1c1.1-1.4,1.7-3.3,1.7-5.7V14.8h6.9v17.5
			c0,4.4-1.2,7.7-3.7,10.1c-2.5,2.3-5.6,3.5-9.5,3.5c-3.9,0-7-1.2-9.5-3.5c-2.5-2.4-3.7-5.7-3.7-10V14.8h6.9v17.3
			C219.5,34.5,220.1,36.4,221.2,37.8z"/>
		<path d="M256,20.7c-0.7,0.5-1,1.3-1,2.2c0,0.9,0.4,1.6,1.2,2.1c0.8,0.5,2.7,1.2,5.6,1.9c2.9,0.7,5.2,1.8,6.8,3.3
			c1.6,1.4,2.4,3.6,2.4,6.3c0,2.8-1,5-3.1,6.7c-2.1,1.7-4.8,2.6-8.1,2.6c-4.9,0-9.2-1.8-13.1-5.4l4.1-5c3.3,2.9,6.4,4.4,9.2,4.4
			c1.3,0,2.2-0.3,3-0.8c0.7-0.5,1.1-1.3,1.1-2.2s-0.4-1.7-1.1-2.2c-0.8-0.5-2.3-1.1-4.5-1.7c-3.6-0.9-6.2-2-7.8-3.3
			c-1.7-1.4-2.5-3.5-2.5-6.5c0-2.9,1-5.2,3.1-6.8c2.1-1.6,4.7-2.4,7.8-2.4c2,0,4.1,0.4,6.1,1.1c2,0.7,3.8,1.7,5.4,3l-3.5,5
			c-2.7-2-5.4-3.1-8.2-3.1C257.5,19.9,256.6,20.2,256,20.7z"/>
	</g>
	<g>
		<path d="M310.3,39.4c3.5,0,6.4-1.3,8.6-4l4.6,4.6c-3.6,4-7.9,5.9-12.8,5.9c-4.9,0-9-1.5-12.2-4.5c-3.2-3-4.8-6.8-4.8-11.4
			c0-4.6,1.6-8.4,4.9-11.5c3.3-3.1,7.2-4.6,11.9-4.6c5.3,0,9.6,1.9,13.2,5.8l-4.4,4.9c-2.3-2.7-5.1-4.1-8.4-4.1
			c-2.7,0-5,0.8-6.9,2.5c-1.9,1.7-2.9,4-2.9,6.9c0,2.9,0.9,5.2,2.7,6.9C305.5,38.6,307.7,39.4,310.3,39.4z"/>
		<path d="M355.6,24.8c0,4.8-1.9,7.9-5.7,9.4l7.6,10.8h-8.3l-6.7-9.6h-4.7v9.6h-6.7V14.8h11.4c4.7,0,8,0.8,10,2.4
			C354.6,18.8,355.6,21.3,355.6,24.8z M347.5,28c0.8-0.7,1.3-1.6,1.3-3.2c0-1.6-0.4-2.7-1.3-3.3c-0.9-0.6-2.4-0.9-4.5-0.9h-5v8.5
			h4.9C345.1,29.1,346.7,28.8,347.5,28z"/>
		<path d="M385.7,14.8v6H370V27h15.7v5.7H370V39h15.7v6h-22.5V14.8H385.7z"/>
		<path d="M416.8,44.9l-2.8-6.5h-12.6l-2.8,6.5h-7.2l13-30.1h6.5l13,30.1H416.8z M407.7,23.8l-3.8,8.8h7.5L407.7,23.8z"/>
		<path d="M441.2,20.6v24.3h-6.7V20.6h-8.5v-5.8h23.8v5.8H441.2z"/>
		<path d="M479.8,14.8v6h-15.7V27h15.7v5.7h-15.7V39h15.7v6h-22.5V14.8H479.8z"/>
	</g>
</g>
</svg>
